# xmcd
#
# Track frame offsets: 
#        182
#        9030
#        35117
#        36555
#        59057
#        81510
#        101100
#        124055
#        144010
#        159477
#        175865
#        198002
#
# Disc length: 2740 seconds
#
# Revision: 6
# Processed by: cddbd v1.5.2PL0 Copyright (c) Steve Scherf et al.
# Submitted via: ExactAudioCopy v0.99pb5
#
DISCID=9f0ab20c
DTITLE=Enigma - Le roi est mort, vive le roi!
DYEAR=1996
DGENRE=New Age
TTITLE0=Le roi est mort, vive le roi!
TTITLE1=Morphing Thru Time
TTITLE2=Third Of Its Kind
TTITLE3=Beyond The Invisible
TTITLE4=Why!...
TTITLE5=Shadows In Silence
TTITLE6=The Child In Us
TTITLE7=T.N.T. For The Brain
TTITLE8=Almost Full Moon
TTITLE9=The Roundabout
TTITLE10=Prism Of Life
TTITLE11=Odyssey Of The Mind
EXTD=
EXTT0=
EXTT1=
EXTT2=
EXTT3=
EXTT4=
EXTT5=
EXTT6=
EXTT7=
EXTT8=
EXTT9=
EXTT10=
EXTT11=
PLAYORDER=
